<?xml version="1.0" encoding="UTF-8" standalone="no"?>
<!-- Created with Inkscape (http://www.inkscape.org/) -->

<svg
   width="100mm"
   height="100mm"
   viewBox="0 0 100 100"
   version="1.1"
   id="svg5"
   inkscape:version="1.1 (c68e22c387, 2021-05-23)"
   sodipodi:docname="placeholder-vector.svg"
   xmlns:inkscape="http://www.inkscape.org/namespaces/inkscape"
   xmlns:sodipodi="http://sodipodi.sourceforge.net/DTD/sodipodi-0.dtd"
   xmlns="http://www.w3.org/2000/svg"
   xmlns:svg="http://www.w3.org/2000/svg"
   xmlns:rdf="http://www.w3.org/1999/02/22-rdf-syntax-ns#"
   xmlns:cc="http://creativecommons.org/ns#">
  <sodipodi:namedview
     id="namedview7"
     pagecolor="#505050"
     bordercolor="#eeeeee"
     borderopacity="1"
     inkscape:pageshadow="0"
     inkscape:pageopacity="0"
     inkscape:pagecheckerboard="0"
     inkscape:document-units="mm"
     showgrid="false"
     inkscape:zoom="0.74118967"
     inkscape:cx="331.89885"
     inkscape:cy="346.06527"
     inkscape:window-width="1920"
     inkscape:window-height="1057"
     inkscape:window-x="3832"
     inkscape:window-y="-8"
     inkscape:window-maximized="1"
     inkscape:current-layer="layer1" />
  <defs
     id="defs2" />
  <g
     inkscape:label="Layer 1"
     inkscape:groupmode="layer"
     id="layer1">
    <g
       aria-label="placeholder"
       id="text1970"
       style="font-size:10.5833px;line-height:1.25;stroke-width:0.264583">
      <path
         d="m 33.291046,84.096056 h 1.353919 v 0.80615 q 0.263549,-0.41341 0.713132,-0.671791 0.449584,-0.258382 0.997352,-0.258382 0.956011,0 1.622635,0.749306 0.666624,0.749306 0.666624,2.087721 0,1.374589 -0.671792,2.139398 -0.671791,0.759641 -1.627802,0.759641 -0.454751,0 -0.82682,-0.180867 -0.366902,-0.180867 -0.775144,-0.620115 v 2.76468 h -1.452104 z m 1.436601,2.650993 q 0,0.925005 0.366901,1.369421 0.366902,0.439248 0.894,0.439248 0.506427,0 0.842323,-0.403075 0.335895,-0.408242 0.335895,-1.333247 0,-0.862994 -0.346231,-1.281572 -0.346231,-0.418578 -0.857826,-0.418578 -0.532265,0 -0.883664,0.413411 -0.351398,0.408242 -0.351398,1.214392 z"
         style="font-weight:bold;font-family:Arial;-inkscape-font-specification:'Arial, Bold'"
         id="path8205" />
      <path
         d="m 39.797089,89.584076 v -7.575741 h 1.452103 v 7.575741 z"
         style="font-weight:bold;font-family:Arial;-inkscape-font-specification:'Arial, Bold'"
         id="path8207" />
      <path
         d="m 43.82267,85.770367 -1.317745,-0.23771 q 0.222208,-0.795815 0.764809,-1.178219 0.542601,-0.382405 1.612299,-0.382405 0.971514,0 1.446936,0.232543 0.475421,0.227376 0.666624,0.583942 0.196369,0.351399 0.196369,1.297075 l -0.0155,1.694981 q 0,0.723468 0.06718,1.069699 0.07235,0.341063 0.263549,0.733803 h -1.436601 q -0.05684,-0.144694 -0.139525,-0.428913 -0.03617,-0.129191 -0.05168,-0.170532 -0.372069,0.361734 -0.795814,0.542601 -0.423746,0.180867 -0.904335,0.180867 -0.847491,0 -1.338415,-0.459919 -0.485757,-0.459919 -0.485757,-1.162716 0,-0.465086 0.222208,-0.82682 0.222208,-0.366902 0.620115,-0.558104 0.403075,-0.19637 1.157548,-0.341063 1.018023,-0.191202 1.410762,-0.356566 v -0.144694 q 0,-0.418578 -0.206705,-0.594277 -0.206705,-0.180867 -0.780311,-0.180867 -0.387572,0 -0.604613,0.155029 -0.21704,0.149861 -0.351398,0.532265 z m 1.943027,1.178219 q -0.279051,0.09302 -0.883664,0.222208 -0.604612,0.129191 -0.790647,0.253214 -0.284219,0.201537 -0.284219,0.511595 0,0.30489 0.227376,0.527098 0.227375,0.222208 0.578774,0.222208 0.392739,0 0.749306,-0.258381 0.263549,-0.19637 0.346231,-0.48059 0.05684,-0.186034 0.05684,-0.707965 z"
         style="font-weight:bold;font-family:Arial;-inkscape-font-specification:'Arial, Bold'"
         id="path8209" />
      <path
         d="m 53.408618,85.718691 -1.431433,0.258381 q -0.07235,-0.428913 -0.330728,-0.645953 -0.253214,-0.21704 -0.661456,-0.21704 -0.542601,0 -0.868161,0.377237 -0.320393,0.372069 -0.320393,1.250565 0,0.976682 0.32556,1.379757 0.330728,0.403074 0.883664,0.403074 0.41341,0 0.676959,-0.232543 0.263549,-0.237711 0.37207,-0.811317 l 1.426265,0.242878 q -0.222208,0.981849 -0.852659,1.483109 -0.63045,0.50126 -1.689814,0.50126 -1.204057,0 -1.922357,-0.759641 -0.713132,-0.759641 -0.713132,-2.103224 0,-1.359086 0.7183,-2.11356 0.7183,-0.759641 1.943027,-0.759641 1.00252,0 1.591629,0.434081 0.594277,0.428913 0.852659,1.312577 z"
         style="font-weight:bold;font-family:Arial;-inkscape-font-specification:'Arial, Bold'"
         id="path8211" />
      <path
         d="m 57.687411,87.837418 1.446936,0.242879 q -0.279052,0.795814 -0.883665,1.214392 -0.599444,0.41341 -1.503779,0.41341 -1.431433,0 -2.118727,-0.93534 -0.542601,-0.749306 -0.542601,-1.891352 0,-1.364253 0.713133,-2.13423 0.713132,-0.775144 1.803502,-0.775144 1.224727,0 1.932692,0.811318 0.707965,0.806149 0.676959,2.475293 h -3.638009 q 0.0155,0.645953 0.351398,1.007687 0.335896,0.356566 0.837156,0.356566 0.341063,0 0.573607,-0.186034 0.232543,-0.186035 0.351398,-0.599445 z m 0.08268,-1.467606 q -0.0155,-0.63045 -0.32556,-0.956011 -0.310058,-0.330728 -0.754474,-0.330728 -0.475421,0 -0.785479,0.346231 -0.310058,0.346231 -0.30489,0.940508 z"
         style="font-weight:bold;font-family:Arial;-inkscape-font-specification:'Arial, Bold'"
         id="path8213" />
      <path
         d="m 61.842183,82.008335 v 2.785351 q 0.702798,-0.821653 1.679479,-0.821653 0.50126,0 0.904335,0.186035 0.403075,0.186034 0.604612,0.475421 0.206705,0.289388 0.279052,0.640786 0.07751,0.351399 0.07751,1.090369 v 3.219432 h -1.452103 v -2.899039 q 0,-0.862993 -0.08268,-1.095537 -0.08268,-0.232543 -0.294555,-0.366901 -0.206705,-0.139526 -0.52193,-0.139526 -0.361734,0 -0.645953,0.175699 -0.28422,0.1757 -0.418578,0.532266 -0.129191,0.351398 -0.129191,1.04386 v 2.749178 H 60.39008 v -7.575741 z"
         style="font-weight:bold;font-family:Arial;-inkscape-font-specification:'Arial, Bold'"
         id="path8215" />
      <path
         d="m 66.524053,86.762552 q 0,-0.723468 0.356566,-1.400427 0.356566,-0.676959 1.007687,-1.033526 0.656289,-0.356566 1.462439,-0.356566 1.245398,0 2.041212,0.811318 0.795815,0.806149 0.795815,2.041212 0,1.245398 -0.80615,2.067051 -0.800982,0.816485 -2.020542,0.816485 -0.754474,0 -1.441768,-0.341063 -0.682127,-0.341064 -1.038693,-0.997352 -0.356566,-0.661457 -0.356566,-1.607132 z m 1.488276,0.07751 q 0,0.816485 0.387572,1.250566 0.387572,0.43408 0.956011,0.43408 0.568439,0 0.950844,-0.43408 0.387572,-0.434081 0.387572,-1.260901 0,-0.80615 -0.387572,-1.240231 -0.382405,-0.43408 -0.950844,-0.43408 -0.568439,0 -0.956011,0.43408 -0.387572,0.434081 -0.387572,1.250566 z"
         style="font-weight:bold;font-family:Arial;-inkscape-font-specification:'Arial, Bold'"
         id="path8217" />
      <path
         d="m 73.324651,89.584076 v -7.575741 h 1.452103 v 7.575741 z"
         style="font-weight:bold;font-family:Arial;-inkscape-font-specification:'Arial, Bold'"
         id="path8219" />
      <path
         d="m 81.2983,89.584076 h -1.348751 v -0.80615 q -0.335896,0.470254 -0.795814,0.702797 -0.454751,0.227376 -0.919838,0.227376 -0.945676,0 -1.622635,-0.759641 -0.671791,-0.764809 -0.671791,-2.129062 0,-1.39526 0.656288,-2.118727 0.656289,-0.728636 1.658809,-0.728636 0.919837,0 1.591629,0.764809 V 82.008335 H 81.2983 Z m -3.87572,-2.862865 q 0,0.878496 0.242878,1.271236 0.351399,0.568439 0.981849,0.568439 0.50126,0 0.852659,-0.423746 0.351398,-0.428913 0.351398,-1.276403 0,-0.945676 -0.341063,-1.359086 -0.341063,-0.418578 -0.873329,-0.418578 -0.516763,0 -0.868161,0.41341 -0.346231,0.408243 -0.346231,1.224728 z"
         style="font-weight:bold;font-family:Arial;-inkscape-font-specification:'Arial, Bold'"
         id="path8221" />
      <path
         d="m 85.907821,87.837418 1.446935,0.242879 q -0.279052,0.795814 -0.883664,1.214392 -0.599445,0.41341 -1.50378,0.41341 -1.431432,0 -2.118726,-0.93534 -0.542601,-0.749306 -0.542601,-1.891352 0,-1.364253 0.713132,-2.13423 0.713133,-0.775144 1.803502,-0.775144 1.224727,0 1.932692,0.811318 0.707965,0.806149 0.676959,2.475293 h -3.638009 q 0.0155,0.645953 0.351399,1.007687 0.335896,0.356566 0.837155,0.356566 0.341064,0 0.573607,-0.186034 0.232543,-0.186035 0.351399,-0.599445 z m 0.08268,-1.467606 q -0.0155,-0.63045 -0.325561,-0.956011 -0.310058,-0.330728 -0.754473,-0.330728 -0.475422,0 -0.78548,0.346231 -0.310057,0.346231 -0.30489,0.940508 z"
         style="font-weight:bold;font-family:Arial;-inkscape-font-specification:'Arial, Bold'"
         id="path8223" />
      <path
         d="m 90.005751,89.584076 h -1.452103 v -5.48802 h 1.34875 v 0.780312 q 0.346231,-0.552936 0.620115,-0.728635 0.279052,-0.1757 0.630451,-0.1757 0.496092,0 0.956011,0.273884 l -0.449584,1.266069 q -0.366901,-0.237711 -0.682126,-0.237711 -0.30489,0 -0.516763,0.170532 -0.211873,0.165364 -0.335896,0.604612 -0.118855,0.439248 -0.118855,1.839675 z"
         style="font-weight:bold;font-family:Arial;-inkscape-font-specification:'Arial, Bold'"
         id="path8225" />
    </g>
    <g
       aria-label="placeholder"
       id="text1970-1"
       style="font-size:10.5833px;line-height:1.25;stroke-width:0.264583">
      <path
         d="m 21.994881,47.255991 h 1.353918 v 0.80615 q 0.263549,-0.41341 0.713133,-0.671791 0.449583,-0.258382 0.997352,-0.258382 0.956011,0 1.622634,0.749306 0.666624,0.749306 0.666624,2.087721 0,1.374589 -0.671791,2.139398 -0.671792,0.759641 -1.627803,0.759641 -0.454751,0 -0.82682,-0.180867 -0.366901,-0.180867 -0.775144,-0.620115 v 2.76468 h -1.452103 z m 1.4366,2.650993 q 0,0.925005 0.366902,1.369421 0.366901,0.439248 0.893999,0.439248 0.506428,0 0.842323,-0.403075 0.335896,-0.408242 0.335896,-1.333247 0,-0.862994 -0.346231,-1.281572 -0.346231,-0.418578 -0.857826,-0.418578 -0.532266,0 -0.883664,0.413411 -0.351399,0.408242 -0.351399,1.214392 z"
         style="font-weight:bold;font-family:Arial;-inkscape-font-specification:'Arial, Bold'"
         id="path8164" />
      <path
         d="M 28.500923,52.744011 V 45.16827 h 1.452103 v 7.575741 z"
         style="font-weight:bold;font-family:Arial;-inkscape-font-specification:'Arial, Bold'"
         id="path8166" />
      <path
         d="m 32.526504,48.930302 -1.317744,-0.23771 q 0.222207,-0.795815 0.764808,-1.178219 0.542601,-0.382405 1.6123,-0.382405 0.971514,0 1.446935,0.232543 0.475422,0.227376 0.666624,0.583942 0.19637,0.351399 0.19637,1.297075 l -0.0155,1.694981 q 0,0.723468 0.06718,1.069699 0.07235,0.341063 0.263549,0.733803 h -1.4366 q -0.05684,-0.144694 -0.139526,-0.428913 -0.03617,-0.129191 -0.05168,-0.170532 -0.372069,0.361734 -0.795815,0.542601 -0.423745,0.180867 -0.904334,0.180867 -0.847491,0 -1.338416,-0.459919 -0.485757,-0.459919 -0.485757,-1.162716 0,-0.465086 0.222208,-0.82682 0.222208,-0.366902 0.620116,-0.558104 0.403074,-0.19637 1.157548,-0.341063 1.018022,-0.191202 1.410762,-0.356566 v -0.144694 q 0,-0.418578 -0.206705,-0.594277 -0.206705,-0.180867 -0.780312,-0.180867 -0.387572,0 -0.604612,0.155029 -0.21704,0.149861 -0.351399,0.532265 z m 1.943028,1.178219 q -0.279052,0.09302 -0.883664,0.222208 -0.604612,0.129191 -0.790647,0.253214 -0.28422,0.201537 -0.28422,0.511595 0,0.30489 0.227376,0.527098 0.227376,0.222208 0.578774,0.222208 0.39274,0 0.749306,-0.258381 0.263549,-0.19637 0.346231,-0.48059 0.05684,-0.186034 0.05684,-0.707965 z"
         style="font-weight:bold;font-family:Arial;-inkscape-font-specification:'Arial, Bold'"
         id="path8168" />
      <path
         d="m 42.112452,48.878626 -1.431432,0.258381 q -0.07235,-0.428913 -0.330728,-0.645953 -0.253214,-0.21704 -0.661457,-0.21704 -0.5426,0 -0.868161,0.377237 -0.320393,0.372069 -0.320393,1.250565 0,0.976682 0.325561,1.379757 0.330728,0.403074 0.883664,0.403074 0.41341,0 0.676959,-0.232543 0.263549,-0.237711 0.372069,-0.811317 l 1.426265,0.242878 q -0.222208,0.981849 -0.852658,1.483109 -0.630451,0.50126 -1.689814,0.50126 -1.204057,0 -1.922357,-0.759641 -0.713133,-0.759641 -0.713133,-2.103224 0,-1.359086 0.7183,-2.11356 0.7183,-0.759641 1.943028,-0.759641 1.002519,0 1.591629,0.434081 0.594277,0.428913 0.852658,1.312577 z"
         style="font-weight:bold;font-family:Arial;-inkscape-font-specification:'Arial, Bold'"
         id="path8170" />
      <path
         d="m 46.391246,50.997353 1.446935,0.242879 q -0.279052,0.795814 -0.883664,1.214392 -0.599445,0.41341 -1.503779,0.41341 -1.431433,0 -2.118727,-0.93534 -0.542601,-0.749306 -0.542601,-1.891352 0,-1.364253 0.713132,-2.13423 0.713133,-0.775144 1.803502,-0.775144 1.224728,0 1.932692,0.811318 0.707965,0.806149 0.67696,2.475293 h -3.63801 q 0.0155,0.645953 0.351399,1.007687 0.335896,0.356566 0.837156,0.356566 0.341063,0 0.573606,-0.186034 0.232543,-0.186035 0.351399,-0.599445 z m 0.08268,-1.467606 q -0.0155,-0.63045 -0.325561,-0.956011 -0.310057,-0.330728 -0.754473,-0.330728 -0.475422,0 -0.78548,0.346231 -0.310057,0.346231 -0.30489,0.940508 z"
         style="font-weight:bold;font-family:Arial;-inkscape-font-specification:'Arial, Bold'"
         id="path8172" />
      <path
         d="m 50.546018,45.16827 v 2.785351 q 0.702797,-0.821653 1.679479,-0.821653 0.501259,0 0.904334,0.186035 0.403075,0.186034 0.604613,0.475421 0.206705,0.289388 0.279051,0.640786 0.07751,0.351399 0.07751,1.090369 v 3.219432 h -1.452103 v -2.899039 q 0,-0.862993 -0.08268,-1.095537 -0.08268,-0.232543 -0.294555,-0.366901 -0.206705,-0.139526 -0.52193,-0.139526 -0.361734,0 -0.645954,0.175699 -0.284219,0.1757 -0.418577,0.532266 -0.129191,0.351398 -0.129191,1.04386 v 2.749178 H 49.093915 V 45.16827 Z"
         style="font-weight:bold;font-family:Arial;-inkscape-font-specification:'Arial, Bold'"
         id="path8174" />
      <path
         d="m 55.227887,49.922487 q 0,-0.723468 0.356567,-1.400427 0.356566,-0.676959 1.007687,-1.033526 0.656288,-0.356566 1.462438,-0.356566 1.245398,0 2.041213,0.811318 0.795814,0.806149 0.795814,2.041212 0,1.245398 -0.806149,2.067051 -0.800983,0.816485 -2.020543,0.816485 -0.754473,0 -1.441767,-0.341063 -0.682127,-0.341064 -1.038693,-0.997352 -0.356567,-0.661457 -0.356567,-1.607132 z m 1.488277,0.07751 q 0,0.816485 0.387572,1.250566 0.387572,0.43408 0.956011,0.43408 0.568439,0 0.950843,-0.43408 0.387572,-0.434081 0.387572,-1.260901 0,-0.80615 -0.387572,-1.240231 -0.382404,-0.43408 -0.950843,-0.43408 -0.568439,0 -0.956011,0.43408 -0.387572,0.434081 -0.387572,1.250566 z"
         style="font-weight:bold;font-family:Arial;-inkscape-font-specification:'Arial, Bold'"
         id="path8176" />
      <path
         d="M 62.028486,52.744011 V 45.16827 h 1.452103 v 7.575741 z"
         style="font-weight:bold;font-family:Arial;-inkscape-font-specification:'Arial, Bold'"
         id="path8178" />
      <path
         d="m 70.002134,52.744011 h -1.34875 v -0.80615 q -0.335896,0.470254 -0.795815,0.702797 -0.454751,0.227376 -0.919837,0.227376 -0.945676,0 -1.622635,-0.759641 -0.671792,-0.764809 -0.671792,-2.129062 0,-1.39526 0.656289,-2.118727 0.656289,-0.728636 1.658808,-0.728636 0.919838,0 1.591629,0.764809 V 45.16827 h 1.452103 z m -3.87572,-2.862865 q 0,0.878496 0.242879,1.271236 0.351398,0.568439 0.981849,0.568439 0.50126,0 0.852658,-0.423746 0.351399,-0.428913 0.351399,-1.276403 0,-0.945676 -0.341064,-1.359086 -0.341063,-0.418578 -0.873328,-0.418578 -0.516763,0 -0.868162,0.41341 -0.346231,0.408243 -0.346231,1.224728 z"
         style="font-weight:bold;font-family:Arial;-inkscape-font-specification:'Arial, Bold'"
         id="path8180" />
      <path
         d="m 74.611655,50.997353 1.446936,0.242879 q -0.279052,0.795814 -0.883665,1.214392 -0.599444,0.41341 -1.503779,0.41341 -1.431433,0 -2.118727,-0.93534 -0.542601,-0.749306 -0.542601,-1.891352 0,-1.364253 0.713133,-2.13423 0.713132,-0.775144 1.803501,-0.775144 1.224728,0 1.932693,0.811318 0.707965,0.806149 0.676959,2.475293 h -3.638009 q 0.0155,0.645953 0.351398,1.007687 0.335896,0.356566 0.837156,0.356566 0.341063,0 0.573606,-0.186034 0.232544,-0.186035 0.351399,-0.599445 z m 0.08268,-1.467606 q -0.0155,-0.63045 -0.32556,-0.956011 -0.310058,-0.330728 -0.754474,-0.330728 -0.475422,0 -0.785479,0.346231 -0.310058,0.346231 -0.30489,0.940508 z"
         style="font-weight:bold;font-family:Arial;-inkscape-font-specification:'Arial, Bold'"
         id="path8182" />
      <path
         d="m 78.709585,52.744011 h -1.452103 v -5.48802 h 1.348751 v 0.780312 q 0.346231,-0.552936 0.620115,-0.728635 0.279052,-0.1757 0.63045,-0.1757 0.496093,0 0.956011,0.273884 l -0.449583,1.266069 q -0.366902,-0.237711 -0.682127,-0.237711 -0.30489,0 -0.516763,0.170532 -0.211872,0.165364 -0.335895,0.604612 -0.118856,0.439248 -0.118856,1.839675 z"
         style="font-weight:bold;font-family:Arial;-inkscape-font-specification:'Arial, Bold'"
         id="path8184" />
    </g>
    <g
       aria-label="placeholder"
       id="text1970-19"
       style="font-size:10.5833px;line-height:1.25;stroke-width:0.264583">
      <path
         d="m 7.8910392,10.41592 h 1.3539182 v 0.806149 q 0.2635489,-0.41341 0.7131325,-0.671791 0.4495831,-0.258381 0.9973521,-0.258381 0.956011,0 1.622635,0.749305 0.666623,0.749306 0.666623,2.087722 0,1.374588 -0.671791,2.139397 -0.671791,0.759641 -1.627802,0.759641 -0.454752,0 -0.826821,-0.180867 Q 9.7513848,15.666228 9.3431423,15.22698 v 2.76468 H 7.8910392 Z m 1.4366002,2.650992 q 0,0.925005 0.3669015,1.369421 0.3669011,0.439249 0.8939991,0.439249 0.506428,0 0.842323,-0.403075 0.335896,-0.408243 0.335896,-1.333248 0,-0.862994 -0.346231,-1.281572 -0.346231,-0.418577 -0.857826,-0.418577 -0.532265,0 -0.883664,0.41341 -0.3513986,0.408242 -0.3513986,1.214392 z"
         style="font-weight:bold;font-family:Arial;-inkscape-font-specification:'Arial, Bold'"
         id="path8024" />
      <path
         d="M 14.397081,15.903939 V 8.3281984 h 1.452103 v 7.5757406 z"
         style="font-weight:bold;font-family:Arial;-inkscape-font-specification:'Arial, Bold'"
         id="path8026" />
      <path
         d="M 18.422663,12.090231 17.104918,11.85252 q 0.222208,-0.795815 0.764809,-1.178219 0.5426,-0.382404 1.612299,-0.382404 0.971514,0 1.446936,0.232543 0.475421,0.227375 0.666623,0.583942 0.19637,0.351398 0.19637,1.297074 l -0.0155,1.694982 q 0,0.723467 0.06718,1.069698 0.07235,0.341064 0.263548,0.733803 h -1.4366 q -0.05684,-0.144693 -0.139526,-0.428913 -0.03617,-0.12919 -0.05168,-0.170531 -0.372069,0.361733 -0.795814,0.5426 -0.423746,0.180867 -0.904335,0.180867 -0.847491,0 -1.338416,-0.459918 -0.485756,-0.459919 -0.485756,-1.162717 0,-0.465086 0.222208,-0.82682 0.222207,-0.366901 0.620115,-0.558103 0.403075,-0.19637 1.157548,-0.341064 1.018023,-0.191202 1.410762,-0.356566 V 12.17808 q 0,-0.418577 -0.206705,-0.594277 -0.206705,-0.180867 -0.780311,-0.180867 -0.387572,0 -0.604613,0.155029 -0.21704,0.149861 -0.351398,0.532266 z m 1.943027,1.178219 q -0.279052,0.09302 -0.883664,0.222208 -0.604612,0.12919 -0.790647,0.253213 -0.284219,0.201538 -0.284219,0.511595 0,0.30489 0.227375,0.527098 0.227376,0.222208 0.578774,0.222208 0.39274,0 0.749306,-0.258381 0.263549,-0.19637 0.346231,-0.480589 0.05684,-0.186035 0.05684,-0.707965 z"
         style="font-weight:bold;font-family:Arial;-inkscape-font-specification:'Arial, Bold'"
         id="path8028" />
      <path
         d="m 28.008611,12.038554 -1.431433,0.258382 q -0.07235,-0.428913 -0.330728,-0.645954 -0.253214,-0.21704 -0.661456,-0.21704 -0.542601,0 -0.868162,0.377237 -0.320393,0.372069 -0.320393,1.250566 0,0.976681 0.325561,1.379756 0.330728,0.403075 0.883664,0.403075 0.41341,0 0.676959,-0.232543 0.263549,-0.237711 0.372069,-0.811318 l 1.426265,0.242879 q -0.222208,0.981849 -0.852658,1.483108 -0.630451,0.50126 -1.689814,0.50126 -1.204057,0 -1.922357,-0.759641 -0.713133,-0.759641 -0.713133,-2.103224 0,-1.359086 0.7183,-2.113559 0.718301,-0.759641 1.943028,-0.759641 1.00252,0 1.591629,0.43408 0.594277,0.428913 0.852659,1.312577 z"
         style="font-weight:bold;font-family:Arial;-inkscape-font-specification:'Arial, Bold'"
         id="path8030" />
      <path
         d="m 32.287404,14.157281 1.446935,0.242879 q -0.279051,0.795814 -0.883664,1.214392 -0.599444,0.41341 -1.503779,0.41341 -1.431433,0 -2.118727,-0.93534 -0.542601,-0.749306 -0.542601,-1.891352 0,-1.364253 0.713133,-2.134229 0.713132,-0.775144 1.803501,-0.775144 1.224728,0 1.932693,0.811317 0.707965,0.80615 0.676959,2.475293 h -3.638009 q 0.0155,0.645954 0.351398,1.007687 0.335896,0.356567 0.837156,0.356567 0.341063,0 0.573606,-0.186035 0.232544,-0.186034 0.351399,-0.599445 z m 0.08268,-1.467606 q -0.0155,-0.63045 -0.325561,-0.956011 -0.310057,-0.330728 -0.754473,-0.330728 -0.475422,0 -0.785479,0.346231 -0.310058,0.346231 -0.30489,0.940508 z"
         style="font-weight:bold;font-family:Arial;-inkscape-font-specification:'Arial, Bold'"
         id="path8032" />
      <path
         d="m 36.442176,8.3281984 v 2.7853506 q 0.702797,-0.821652 1.679479,-0.821652 0.50126,0 0.904335,0.186034 0.403074,0.186035 0.604612,0.475422 0.206705,0.289387 0.279052,0.640786 0.07751,0.351398 0.07751,1.090369 v 3.219431 h -1.452103 v -2.899038 q 0,-0.862994 -0.08268,-1.095537 -0.08268,-0.232543 -0.294555,-0.366902 -0.206705,-0.139526 -0.52193,-0.139526 -0.361734,0 -0.645953,0.1757 -0.28422,0.175699 -0.418578,0.532265 -0.129191,0.351399 -0.129191,1.043861 v 2.749177 H 34.990073 V 8.3281984 Z"
         style="font-weight:bold;font-family:Arial;-inkscape-font-specification:'Arial, Bold'"
         id="path8034" />
      <path
         d="m 41.124046,13.082415 q 0,-0.723468 0.356566,-1.400427 0.356566,-0.676959 1.007687,-1.033525 0.656289,-0.356566 1.462438,-0.356566 1.245399,0 2.041213,0.811317 0.795815,0.80615 0.795815,2.041213 0,1.245398 -0.80615,2.06705 -0.800982,0.816485 -2.020542,0.816485 -0.754474,0 -1.441768,-0.341063 -0.682127,-0.341063 -1.038693,-0.997352 -0.356566,-0.661456 -0.356566,-1.607132 z m 1.488276,0.07751 q 0,0.816485 0.387572,1.250566 0.387572,0.434081 0.956011,0.434081 0.568439,0 0.950843,-0.434081 0.387572,-0.434081 0.387572,-1.260901 0,-0.80615 -0.387572,-1.24023 -0.382404,-0.434081 -0.950843,-0.434081 -0.568439,0 -0.956011,0.434081 -0.387572,0.43408 -0.387572,1.250565 z"
         style="font-weight:bold;font-family:Arial;-inkscape-font-specification:'Arial, Bold'"
         id="path8036" />
      <path
         d="M 47.924644,15.903939 V 8.3281984 h 1.452103 v 7.5757406 z"
         style="font-weight:bold;font-family:Arial;-inkscape-font-specification:'Arial, Bold'"
         id="path8038" />
      <path
         d="m 55.898293,15.903939 h -1.348751 v -0.80615 q -0.335896,0.470255 -0.795815,0.702798 -0.454751,0.227375 -0.919837,0.227375 -0.945676,0 -1.622635,-0.759641 -0.671791,-0.764809 -0.671791,-2.129062 0,-1.395259 0.656288,-2.118727 0.656289,-0.728635 1.658808,-0.728635 0.919838,0 1.591629,0.764808 V 8.3281984 h 1.452104 z m -3.875721,-2.862865 q 0,0.878497 0.242879,1.271236 0.351399,0.568439 0.981849,0.568439 0.50126,0 0.852658,-0.423745 0.351399,-0.428913 0.351399,-1.276404 0,-0.945676 -0.341063,-1.359086 -0.341064,-0.418578 -0.873329,-0.418578 -0.516763,0 -0.868162,0.41341 -0.346231,0.408243 -0.346231,1.224728 z"
         style="font-weight:bold;font-family:Arial;-inkscape-font-specification:'Arial, Bold'"
         id="path8040" />
      <path
         d="m 60.507813,14.157281 1.446936,0.242879 q -0.279052,0.795814 -0.883664,1.214392 -0.599445,0.41341 -1.50378,0.41341 -1.431432,0 -2.118727,-0.93534 -0.542601,-0.749306 -0.542601,-1.891352 0,-1.364253 0.713133,-2.134229 0.713132,-0.775144 1.803502,-0.775144 1.224727,0 1.932692,0.811317 0.707965,0.80615 0.676959,2.475293 h -3.638009 q 0.0155,0.645954 0.351399,1.007687 0.335895,0.356567 0.837155,0.356567 0.341063,0 0.573607,-0.186035 0.232543,-0.186034 0.351398,-0.599445 z m 0.08268,-1.467606 q -0.0155,-0.63045 -0.32556,-0.956011 -0.310058,-0.330728 -0.754474,-0.330728 -0.475421,0 -0.785479,0.346231 -0.310058,0.346231 -0.30489,0.940508 z"
         style="font-weight:bold;font-family:Arial;-inkscape-font-specification:'Arial, Bold'"
         id="path8042" />
      <path
         d="M 64.605744,15.903939 H 63.15364 V 10.41592 h 1.348751 v 0.780311 q 0.346231,-0.552936 0.620115,-0.728635 0.279052,-0.175699 0.630451,-0.175699 0.496092,0 0.956011,0.273884 l -0.449584,1.266068 q -0.366901,-0.23771 -0.682127,-0.23771 -0.30489,0 -0.516762,0.170531 -0.211873,0.165364 -0.335896,0.604613 -0.118855,0.439248 -0.118855,1.839675 z"
         style="font-weight:bold;font-family:Arial;-inkscape-font-specification:'Arial, Bold'"
         id="path8044" />
    </g>
  </g>
  <metadata
     id="metadata857">
    <rdf:RDF>
      <cc:Work
         rdf:about="">
        <cc:license
           rdf:resource="http://creativecommons.org/publicdomain/zero/1.0/" />
      </cc:Work>
      <cc:License
         rdf:about="http://creativecommons.org/publicdomain/zero/1.0/">
        <cc:permits
           rdf:resource="http://creativecommons.org/ns#Reproduction" />
        <cc:permits
           rdf:resource="http://creativecommons.org/ns#Distribution" />
        <cc:permits
           rdf:resource="http://creativecommons.org/ns#DerivativeWorks" />
      </cc:License>
    </rdf:RDF>
  </metadata>
</svg>
